PathFileType	4	(X/Y/Z)	39_1_7_p0_0-294_filt_butterworth.trc
DataRate	CameraRate	NumFrames	NumMarkers	Units	OrigDataRate	OrigDataStartFrame	OrigNumFrames
43.0	43.0	6	27	m	43.0	147	294
Frame#	Time	RHip			RKnee			RAnkle			RBigToe			RSmallToe			RHeel			LHip			LKnee			LAnkle			LBigToe			LSmallToe			LHeel			Neck			Head			Nose			RShoulder			RElbow			RWrist			RThumb			RIndex			RPinky			LShoulder			LElbow			LWrist			LThumb			LIndex			LPinky			
		X1	Y1	Z1	X2	Y2	Z2	X3	Y3	Z3	X4	Y4	Z4	X5	Y5	Z5	X6	Y6	Z6	X7	Y7	Z7	X8	Y8	Z8	X9	Y9	Z9	X10	Y10	Z10	X11	Y11	Z11	X12	Y12	Z12	X13	Y13	Z13	X14	Y14	Z14	X15	Y15	Z15	X16	Y16	Z16	X17	Y17	Z17	X18	Y18	Z18	X19	Y19	Z19	X20	Y20	Z20	X21	Y21	Z21	X22	Y22	Z22	X23	Y23	Z23	X24	Y24	Z24	X25	Y25	Z25	X26	Y26	Z26	X27	Y27	Z27	
147	3.4186046511627906	0.29492047749254446	0.773820146077848	0.6968384797862514	0.2544824330693721	0.37807008984473733	0.7434906114931717	0.24240337229950915	-0.03236246591636348	0.7947808546736335	0.22004507989963792	-0.0763097624053748	0.6910765865542676	0.2789176729264939	-0.06938314441729501	0.6819296499143866	0.22651802884004815	-0.09428813635807537	0.840281581650917	0.05530693097856302	0.7592717532086455	0.7104304975825139	0.048956638484663244	0.3458576584463924	0.8118638128016064	0.03180523524791419	-0.05879088986380919	0.814718884722302	0.0574360445989067	-0.029246595499426847	0.616796619809044	-0.0020433439975684167	-0.03589222699963106	0.6631925442751192	0.04658720860100656	-0.09509784634141036	0.833779635275776	0.143220809509265	1.3061546021953467	0.7014652063652302	0.12429565540604076	1.5605133902029569	0.6408656336357176	0.1260372782706366	1.4339349131264438	0.5771149195929052	0.31199011729825044	1.2497012940778807	0.6458406081258126	0.37661613688510664	0.9876194828114393	0.6266105257093652	0.26843754622608307	0.7920972869603438	0.531623368289613	0.16596034929577252	0.7370567354258812	0.5183780012942064	0.16322399786969632	0.7104786526714439	0.5377771908464465	0.1848531834723473	0.6934765405234571	0.5697273956172362	-0.016746824521531176	1.2095984054226494	0.6800734334048127	-0.048507974180842656	0.9544404959060996	0.6831952552123377	0.08639326692357235	0.8076381742728479	0.5618081696961912	0.16802622520494814	0.7702166799723011	0.5115264449654338	0.17125034838831477	0.7380604090002496	0.4959721908135834	0.16180242055628632	0.7227416283689773	0.5108088011463024	
148	3.441860465116279	0.29454918741933117	0.7748983661919168	0.6957218434575945	0.2542499056223358	0.37806624647827874	0.7433722782713862	0.2424027691826553	-0.032421899091451184	0.7947594284028705	0.21983653423536467	-0.07619141165638307	0.6909706279667409	0.2793638152327604	-0.06930626492902818	0.6817581019577228	0.22646279789939397	-0.09474157236663429	0.8401831817283223	0.055286802286911796	0.7596105189134796	0.7105830553088667	0.048947544217867546	0.34622720368727855	0.8119444375906408	0.03178982478188116	-0.05885242785544018	0.8147167250683685	0.057550278045041384	-0.029609655837310227	0.6169084404452622	-0.0009974236959244738	-0.03515149527163552	0.6632157721248024	0.04661970142703888	-0.0948358505826951	0.8338729761802816	0.1439057024767022	1.3073185304214459	0.700224596794587	0.12413296353256038	1.5612828420483884	0.6402456180158774	0.12563340698029557	1.4365748520557584	0.578258735318402	0.3123418531153313	1.25055485999703	0.6460497030770012	0.37736814840402966	0.9878703243857885	0.6245931618099465	0.26851744778610265	0.792449840446877	0.532152112340158	0.16610004648982735	0.737088498256952	0.5184200194951178	0.16301311652026235	0.7098044613138811	0.5392814838349476	0.18485504792360657	0.6934223580750135	0.5696813269507258	-0.017025028704390825	1.2091856649227726	0.682602119349867	-0.04912707786041559	0.956112062426922	0.6826519224620692	0.08633509185522728	0.8076858414488042	0.5621542075164082	0.16822107868750596	0.7707970302179125	0.5118439861667972	0.17140552819002958	0.7380810697273337	0.4959042442091497	0.16086137418116253	0.7227134395347214	0.5121699867057989	
149	3.4651162790697674	0.2940823971866985	0.7757846412684186	0.6945431714945022	0.25411449049956303	0.3780988050292232	0.7432828168656225	0.24239575208846031	-0.03250276011203586	0.7946905747469428	0.21928279664809663	-0.07602262412082095	0.6907183580325519	0.27913210421864154	-0.06911851536432104	0.6813307058601278	0.22644617971994943	-0.09508781955179343	0.8400892425012666	0.055300564039606856	0.7597891455092145	0.7107684954663281	0.048874643364697504	0.34651289944172	0.811981779257624	0.03180261936563702	-0.05880946102161178	0.8147076083927228	0.057575040957576755	-0.029498655538175163	0.6168040701267343	-0.0004171774703053141	-0.03442101738559997	0.6631917681689986	0.046597460801768	-0.09439572763656465	0.8339976024911075	0.1447906209596054	1.3083087657727728	0.6976668251757578	0.12388487287449099	1.5618045647953243	0.6393879914076008	0.12490068139999072	1.4389000939916963	0.5801652826186704	0.31271456772501227	1.2511547996887424	0.6465612764939679	0.3784457274742652	0.9879274122003351	0.6234292574865594	0.26848269923951973	0.7926024510793077	0.5321447734981672	0.16624910096642964	0.7372064093602462	0.518161084156455	0.16263785005914047	0.7091698915764869	0.5395812938723957	0.18459799795015464	0.6932522209097347	0.5707977254018466	-0.016881748045464096	1.2090284880321587	0.685599205907876	-0.0498647118934963	0.9576178755337142	0.6820896023532459	0.08646168497450277	0.8071821240910046	0.5625272109761418	0.16831785719948938	0.7716753998931747	0.5120851420076535	0.17141719580163697	0.7381381469805692	0.4957492801241288	0.16011266766585625	0.7223697059227656	0.5139703074982245	
150	3.488372093023256	0.2935386358554654	0.7765078434318273	0.693299022679346	0.25405643392928007	0.37816181262768866	0.7432435034967303	0.24239592572930901	-0.03261626529831571	0.7946426438643479	0.2184129662496198	-0.07582232260536112	0.6903523634173397	0.2784530436696977	-0.06891053026639134	0.6808422683727609	0.2264703581963031	-0.09534348472087151	0.8400021767770496	0.05534102655576775	0.7599533275158201	0.7110129282622923	0.048778512809287904	0.3466597583106083	0.8119250421420491	0.0318385863341082	-0.058671920244688966	0.8146961858554856	0.05753451589554841	-0.028829172009193695	0.6165276743774962	-0.00016022837337426117	-0.03385795927142528	0.6630722393462959	0.04658225531875099	-0.0938357926709436	0.8341440822286863	0.14595105074309733	1.3090583759806615	0.6952272480602069	0.1238514646706404	1.5621812940477684	0.6388032550508326	0.1239948463112393	1.440948981187826	0.5825202142799134	0.3130174390941438	1.2514469635633902	0.6478914952307098	0.3795765056537792	0.9880992006179482	0.6232729202586611	0.26821005163983264	0.792973352692707	0.5311872163490199	0.1661519249484051	0.7373594036646662	0.5177364944661758	0.1617167766511288	0.7089521957820938	0.53928662659092	0.18365373965320017	0.6937151214010129	0.5713505423832507	-0.015954191997155802	1.209600067738088	0.6893745581856272	-0.05035171648476976	0.9592281488905984	0.6817207336912239	0.08651817442942439	0.8069451154972523	0.5623642972522296	0.16804580131256647	0.7727975177848964	0.512154054871717	0.17116713465020617	0.7383558084976286	0.4952346073835678	0.15965659874564214	0.7220260061792984	0.5159361800998461	
151	3.511627906976744	0.2930089135529885	0.777096217445416	0.6920576366329221	0.2540133383406503	0.3781909049324435	0.7431758409458679	0.2424352429968179	-0.0327961683060682	0.7947851518774427	0.21757859422457493	-0.07565508221382336	0.6900279884905179	0.277583882834152	-0.06872422974835365	0.6803768244967766	0.2265178107033079	-0.09557484220673489	0.8399244402994348	0.0553831728655108	0.7601431037977382	0.7113156647121084	0.048667568906248834	0.34669262694495795	0.8117645904356268	0.031873285441786366	-0.05852437883830253	0.8146916175254182	0.057439300703807476	-0.027649620562377172	0.6161127957018836	-1.502931239182284e-05	-0.03362496426164547	0.6629015605719107	0.04657129068739339	-0.09335105962585044	0.8342968446231834	0.14744636979288003	1.3096179584269971	0.6943478459852901	0.1242606100967037	1.5624394186460078	0.6390459024926586	0.12303812306738118	1.4426767756106877	0.585038580549778	0.3132644585554292	1.2512259402800774	0.6497244320119576	0.38026501613617286	0.988508220820828	0.6237463808641848	0.26773704189821146	0.793596226113443	0.5294562211793867	0.16562298988183244	0.7373231255774786	0.5177681385720908	0.16018650075030322	0.7093090526263284	0.5393434683028819	0.18184339253486578	0.695100061256397	0.5705587383688171	-0.014218716409821417	1.2111925709429368	0.6925616180113665	-0.05043277801138607	0.9608213441839282	0.6817068796959733	0.08635896940781344	0.8072822647496988	0.5613315124661301	0.16744290513733823	0.7740170895651893	0.5120342443356818	0.17072238864763584	0.7386538060745952	0.49460156034508773	0.1595207925096393	0.721801063219256	0.5178499637537336	
152	3.5348837209302326	0.2925526214126495	0.7775161655409624	0.6909341840838064	0.2539581261793413	0.37818289909488756	0.7430360266576642	0.24251870745627344	-0.033073798979484384	0.7951386572828623	0.2172436680978636	-0.07559231705176385	0.6899002539292882	0.2765906035098794	-0.0685456305684962	0.6799401614724824	0.22657115019868346	-0.09575566974454203	0.8398616706784529	0.0554319108689454	0.7603165569515371	0.7115797649116138	0.04853125610154766	0.3466315258155079	0.8115304384393704	0.03188436902064205	-0.05845363742135667	0.8147003179482939	0.05730452756835152	-0.026345261004240728	0.6156717543762973	9.999605675129211e-05	-0.03379946111306674	0.6628142572693648	0.046453543807131216	-0.09308903548885594	0.8344412631965987	0.1492309230040208	1.3100755469731624	0.6954048729066717	0.12511079078521417	1.5624025075273864	0.6403712601889104	0.12212639468878242	1.4440462664280826	0.587346370768949	0.3136765024586031	1.2503520675938902	0.6515421428952318	0.3802638543696169	0.9890322996798981	0.6242112441191683	0.2671633320195327	0.794249705694828	0.527320653370739	0.16475805917637698	0.7369688061033068	0.518640546134969	0.15846814994770186	0.7102993359894525	0.5390396581140077	0.1795879993528667	0.697241567305974	0.5687080106562505	-0.011907385636312145	1.2137720328441335	0.6933534781471551	-0.05028556675790467	0.9622866448236465	0.6819953985255207	0.0860137748163519	0.8079800962569795	0.5594888600047944	0.16670951600538003	0.7752509395669265	0.511750042263294	0.1700779145708931	0.7387638021959048	0.49455315025069857	0.15956895029774895	0.7217583439305642	0.5194420506141691	
